<?xml version="1.0" encoding="UTF-8" standalone="no"?>
<svg
   xmlns:dc="http://purl.org/dc/elements/1.1/"
   xmlns:cc="http://creativecommons.org/ns#"
   xmlns:rdf="http://www.w3.org/1999/02/22-rdf-syntax-ns#"
   xmlns:svg="http://www.w3.org/2000/svg"
   xmlns="http://www.w3.org/2000/svg"
   xmlns:sodipodi="http://sodipodi.sourceforge.net/DTD/sodipodi-0.dtd"
   xmlns:inkscape="http://www.inkscape.org/namespaces/inkscape"
   version="1.0"
   width="1024.000000pt"
   height="1024.000000pt"
   viewBox="0 0 1024.000000 1024.000000"
   preserveAspectRatio="xMidYMid meet"
   id="svg6"
   sodipodi:docname="Signal_Blue_Icon-orginal.svg"
   inkscape:version="0.92.1 r15371"
   inkscape:export-filename="D:\Tobl\Signal_Blue_Icon-orginal.png"
   inkscape:export-xdpi="192"
   inkscape:export-ydpi="192">
  <metadata
     id="metadata12">
    <rdf:RDF>
      <cc:Work
         rdf:about="">
        <dc:format>image/svg+xml</dc:format>
        <dc:type
           rdf:resource="http://purl.org/dc/dcmitype/StillImage" />
      </cc:Work>
    </rdf:RDF>
  </metadata>
  <defs
     id="defs10" />
  <sodipodi:namedview
     pagecolor="#ffffff"
     bordercolor="#666666"
     borderopacity="1"
     objecttolerance="10"
     gridtolerance="10"
     guidetolerance="10"
     inkscape:pageopacity="0"
     inkscape:pageshadow="2"
     inkscape:window-width="1600"
     inkscape:window-height="1147"
     id="namedview8"
     showgrid="false"
     inkscape:zoom="0.48889805"
     inkscape:cx="655.09021"
     inkscape:cy="503.71408"
     inkscape:window-x="-8"
     inkscape:window-y="-8"
     inkscape:window-maximized="1"
     inkscape:current-layer="g4" />
  <g
     transform="translate(0.000000,1024.000000) scale(0.100000,-0.100000)"
     id="g4"
     style="fill:#2090ea;fill-opacity:1"
     stroke="none"
     fill="#000000">
    <path
       d="m 0,5120 v -7879.9999 h 5120 5120 V 5120 9985 H 5120 0 Z m 5458,3833 c 29,-5 32,-8 28,-32 -3,-14 -8,-61 -11,-104 l -7,-77 -51,7 c -127,18 -700,5 -862,-21 -15,-2 -39,196 -24,204 6,4 75,13 153,19 77,6 207.8136,10.2881 229.8136,12.2881 55,6 503.1864,-0.2881 544.1864,-8.2881 z m 577,-89 c 162,-35 395,-103 545,-159 119,-44 220,-85 220,-89 0,-8 -74,-173 -80,-180 -5,-4 -59,12 -122,37 -210,83 -479,163 -700,207 -32,6 -58,16 -58,23 0,6 7,53 17,104 15,85 18,92 37,88 12,-3 75,-16 141,-31 z M 4157,8763 c 12,-54 20,-99 18,-101 -1,-2 -53,-16 -115,-33 -218,-57 -437,-133 -632,-220 -61,-27 -112,-49 -114,-49 -6,0 -96,182 -92,186 2,2 54,26 116,53 212,95 426,168 732,250 66,18 65,19 87,-86 z m 3112,-385 c 127,-76 313,-203 421,-287 106,-83 248,-203 249,-211 0,-3 -31,-39 -69,-80 l -69,-74 -38,32 c -223,189 -416,329 -616,447 l -97,57 42,77 c 52,96 58,103 76,96 8,-3 54,-29 101,-57 z M 2929,8271 c 28,-46 50,-87 49,-91 -2,-4 -66,-49 -143,-101 -166,-110 -353,-259 -482,-383 l -94,-89 -75,74 -76,74 99,94 c 139,132 333,286 513,406 85,57 155,103 156,102 1,-1 25,-40 53,-86 z m 2611,-206 c 393,-55 715,-152 1055,-320 940,-461 1550,-1281 1686,-2265 18,-127 18,-555 1,-680 -49,-342 -135,-621 -285,-914 C 7632,3172 6971,2620 6162,2354 5820,2241 5484,2190 5090,2190 c -295,0 -477,19 -746,77 l -122,26 -528,-307 c -409,-237 -536,-306 -562,-306 -43,0 -102,55 -102,94 0,29 -65,878 -75,983 l -6,62 -72,58 c -505,407 -853,1040 -957,1743 -79,528 -32,1038 136,1483 402,1061 1437,1834 2634,1967 52,5 111,12 130,14 90,10 611,-3 720,-19 z m 2807,-620 c 58,-71 147,-193 198,-270 101,-151 217,-353 212,-370 -3,-11 -155,-94 -173,-95 -6,0 -17,13 -24,30 -22,52 -163,282 -242,395 -43,61 -119,159 -169,219 -50,60 -87,112 -82,116 141,127 146,130 161,118 8,-7 62,-71 119,-143 z m -6411,-46 c 43,-36 71,-66 67,-73 -4,-6 -35,-48 -69,-92 -131,-173 -243,-352 -340,-546 -56,-112 -67,-128 -85,-123 -41,13 -169,76 -169,83 0,14 130,264 182,352 112,185 308,460 329,460 6,0 44,-28 85,-61 z M 8964,6338 c 52,-152 83,-260 116,-410 36,-167 74,-419 63,-428 -4,-5 -51,-11 -104,-15 l -97,-7 -7,54 c -29,236 -87,493 -158,705 l -45,132 87,35 c 47,19 91,35 97,35 7,1 28,-45 48,-101 z M 1382,6211 c 4,-4 -8,-60 -27,-126 -62,-216 -125,-586 -125,-734 v -44 l -67,6 c -38,4 -86,7 -107,7 h -39 l 7,103 c 15,221 59,465 127,708 l 41,147 91,-30 c 51,-17 95,-34 99,-37 z M 9162,5015 c -7,-228 -45,-496 -103,-735 -35,-144 -31,-140 -114,-115 -27,9 -66,20 -86,25 l -36,10 33,134 c 56,230 94,498 94,666 0,116 -5,111 114,108 l 101,-3 z M 1230,4881 c 0,-163 38,-498 80,-711 16,-79 28,-145 27,-146 -8,-8 -198,-51 -201,-45 -7,11 -55,264 -71,373 -20,137 -45,423 -45,510 v 67 l 38,4 c 20,2 67,4 105,5 l 67,2 z M 8808,3809 c 45,-17 82,-37 82,-43 0,-19 -166,-350 -226,-454 -59,-101 -196,-307 -236,-354 l -23,-28 -65,51 c -36,28 -73,57 -83,64 -16,11 -11,21 61,122 109,152 207,320 303,516 47,98 86,166 93,164 6,-3 48,-20 94,-38 z M 1480,3585 c 77,-195 207,-425 341,-602 l 77,-101 -78,-66 c -43,-36 -80,-66 -83,-66 -12,0 -179,232 -242,336 -37,60 -91,159 -120,219 -53,110 -127,286 -122,291 3,4 192,72 194,70 1,0 15,-37 33,-81 z m 6604,-885 71,-69 -80,-81 c -159,-162 -398,-361 -577,-481 l -88,-59 -57,86 -58,87 25,18 c 220,159 286,209 377,287 60,50 151,134 203,187 52,52 99,95 103,95 5,0 41,-31 81,-70 z M 2382,2430 c 25,-22 43,-68 129,-335 54,-170 97,-315 95,-320 -4,-12 -183,-71 -190,-64 -3,3 -46,133 -97,289 -58,181 -97,289 -109,297 -9,7 -58,46 -109,89 l -91,76 70,78 71,79 101,-82 c 55,-45 114,-93 130,-107 z m 4664,-562 c 13,-26 24,-50 24,-53 0,-16 -321,-159 -512,-229 -126,-45 -358,-116 -382,-116 -15,0 -62,189 -50,199 5,4 41,16 79,26 174,45 524,179 703,269 l 67,34 23,-42 c 13,-22 35,-62 48,-88 z M 4354,1620 c 60,-16 110,-31 112,-33 2,-2 -6,-47 -18,-100 -15,-70 -26,-97 -37,-97 -8,0 -49,9 -91,21 l -76,20 -312,-135 c -172,-75 -316,-136 -320,-136 -12,0 -84,182 -75,190 13,13 677,299 693,299 8,0 64,-13 124,-29 z m 1415,-133 c 8,-53 12,-99 10,-101 -7,-7 -272,-36 -414,-46 -77,-5 -231,-10 -342,-10 h -203 v 59 c 0,32 3,79 6,105 l 7,46 h 176 c 197,0 448,15 591,34 52,8 109,13 125,12 l 30,-1 z M 2790,1223 c 29,-90 56,-163 60,-163 7,0 106,42 281,118 l 46,20 42,-96 c 22,-52 40,-97 38,-98 -1,-1 -103,-46 -227,-100 -150,-65 -236,-98 -259,-97 -63,2 -82,34 -160,281 -39,122 -71,228 -71,235 0,14 181,78 192,68 3,-3 30,-79 58,-168 z"
       id="path2"
       style="fill:#2090ea;fill-opacity:1"
       inkscape:connector-curvature="0"
       sodipodi:nodetypes="cccccccccccccccccccccscccscccccccssccccccccccccccsccccccccssccccccscccssccccccccccccccsccccccscscsccccccccccccccsccsccccccccccccscccscsccsccccscscccccccccccccscccccccccccccccsccccsccccccccsscscccccssscscccscsscscscsccscccccscccccccscc"
       inkscape:export-xdpi="192"
       inkscape:export-ydpi="192" />
    <text
       xml:space="preserve"
       style="font-style:normal;font-weight:normal;font-size:1999.99987793px;line-height:1.25;font-family:sans-serif;letter-spacing:0px;word-spacing:0px;fill:#fffffd;fill-opacity:1;stroke:none;stroke-width:7.5"
       x="1785.5762"
       y="1534.0621"
       id="text10"
       transform="scale(1,-1)"><tspan
         sodipodi:role="line"
         id="tspan8"
         x="1785.5762"
         y="1534.0621"
         style="font-style:normal;font-variant:normal;font-weight:normal;font-stretch:normal;font-size:1700px;font-family:Calibri;-inkscape-font-specification:Calibri;fill:#fffffd;fill-opacity:1;stroke-width:7.5">signal.org</tspan></text>
  </g>
</svg>
